<svg width="73" height="64" viewBox="0 0 73 64" fill="none" xmlns="http://www.w3.org/2000/svg">
<path fill-rule="evenodd" clip-rule="evenodd" d="M37.9401 1C37.5846 0.384325 36.929 0.0036191 36.2181 2.5656e-05C35.5072 -0.00356755 34.8478 0.370491 34.4861 0.982542L27.9862 11.9825C27.4242 12.9335 27.7396 14.1599 28.6905 14.7219C29.6415 15.2838 30.8679 14.9684 31.4299 14.0175L36.188 5.96529L66.9519 59.25H25.2082L25.2082 42.1142C26.3593 43.67 27.5038 44.9479 28.7152 45.9865C31.2805 48.1857 34.0182 49.2069 37.4044 49.7275C38.4961 49.8953 39.5172 49.1463 39.6851 48.0546C39.8529 46.9629 39.1039 45.9418 38.0122 45.7739C35.156 45.3349 33.1765 44.5424 31.3187 42.9497C29.4485 41.3463 27.5902 38.8388 25.2082 34.7172V32.1142C26.3593 33.6701 27.5038 34.9479 28.7152 35.9865C31.2805 38.1857 34.0182 39.2069 37.4044 39.7275C38.4961 39.8953 39.5172 39.1463 39.6851 38.0546C39.8529 36.9629 39.1039 35.9418 38.0122 35.7739C35.156 35.3349 33.1765 34.5424 31.3187 32.9497C29.4485 31.3463 27.5902 28.8388 25.2082 24.7172V23.1138C26.3593 24.6697 27.5038 25.9475 28.7152 26.9861C31.2805 29.1853 34.0182 30.2066 37.4044 30.7271C38.4961 30.895 39.5172 30.146 39.6851 29.0542C39.8529 27.9625 39.1039 26.9414 38.0122 26.7736C35.156 26.3345 33.1765 25.542 31.3187 23.9493C29.3848 22.2914 27.4636 19.6666 24.963 15.29L24.9502 15.267C24.8622 15.1108 24.7526 14.9653 24.6227 14.8356C24.4939 14.7067 24.3495 14.5977 24.1944 14.51C24.0545 14.4305 23.904 14.3675 23.7457 14.3234C23.5685 14.2739 23.3877 14.2498 23.2083 14.25C23.0339 14.2498 22.8584 14.2725 22.6861 14.3192C22.5154 14.3653 22.3538 14.4333 22.2044 14.5202C22.056 14.6061 21.9177 14.7117 21.7937 14.8358C21.6725 14.9569 21.5689 15.0917 21.484 15.2363C21.473 15.2551 21.4622 15.274 21.4517 15.2932C18.952 19.6679 17.0313 22.2918 15.0979 23.9493C13.2401 25.542 11.2605 26.3345 8.4044 26.7736C7.31265 26.9414 6.56367 27.9625 6.73151 29.0542C6.89934 30.146 7.92043 30.895 9.01217 30.7271C12.3983 30.2066 15.1361 29.1853 17.7014 26.9861C18.9127 25.9476 20.0572 24.6697 21.2082 23.1139V24.7173C18.8263 28.8389 16.9681 31.3464 15.0979 32.9497C13.2401 34.5424 11.2605 35.3349 8.4044 35.7739C7.31265 35.9418 6.56367 36.9629 6.73151 38.0546C6.89934 39.1463 7.92043 39.8953 9.01217 39.7275C12.3983 39.2069 15.1361 38.1857 17.7014 35.9865C18.9127 34.9479 20.0572 33.6701 21.2082 32.1143V34.7173C18.8263 38.8389 16.9681 41.3464 15.0979 42.9497C13.2401 44.5424 11.2605 45.3349 8.4044 45.7739C7.31265 45.9418 6.56367 46.9629 6.73151 48.0546C6.89934 49.1463 7.92043 49.8953 9.01217 49.7275C12.3983 49.2069 15.1361 48.1857 17.7014 45.9865C18.9127 44.9479 20.0572 43.6701 21.2082 42.1143V59.25H5.55509L8.41732 54.5384C8.99081 53.5944 8.69042 52.3642 7.74639 51.7907C6.80236 51.2172 5.57218 51.5176 4.99869 52.4616L0.290685 60.2116C-0.0844346 60.8291 -0.0973478 61.6009 0.256904 62.2306C0.611157 62.8603 1.27749 63.25 2 63.25H70.416C71.1305 63.25 71.7908 62.8688 72.1481 62.25C72.5053 61.6312 72.5053 60.8688 72.1481 60.25L37.9401 1Z" fill="#434A5C"/>
</svg>
