<svg width="156" height="27" viewBox="0 0 156 27" fill="none" xmlns="http://www.w3.org/2000/svg">
<path d="M12.3164 19.3965H16.4043C16.3223 20.7363 15.9531 21.9258 15.2969 22.9648C14.6497 24.0039 13.7428 24.8151 12.5762 25.3984C11.4186 25.9818 10.0241 26.2734 8.39258 26.2734C7.11654 26.2734 5.97266 26.0547 4.96094 25.6172C3.94922 25.1706 3.08333 24.5326 2.36328 23.7031C1.65234 22.8737 1.11003 21.8711 0.736328 20.6953C0.36263 19.5195 0.175781 18.2025 0.175781 16.7441V15.3633C0.175781 13.9049 0.367188 12.5879 0.75 11.4121C1.14193 10.2272 1.69792 9.22005 2.41797 8.39062C3.14714 7.5612 4.01758 6.92318 5.0293 6.47656C6.04102 6.02995 7.17122 5.80664 8.41992 5.80664C10.0788 5.80664 11.4779 6.10742 12.6172 6.70898C13.7656 7.31055 14.6543 8.13997 15.2832 9.19727C15.9212 10.2546 16.304 11.4577 16.4316 12.8066H12.3301C12.2845 12.0046 12.125 11.3255 11.8516 10.7695C11.5781 10.2044 11.1634 9.7806 10.6074 9.49805C10.0605 9.20638 9.33138 9.06055 8.41992 9.06055C7.73633 9.06055 7.13932 9.18815 6.62891 9.44336C6.11849 9.69857 5.6901 10.0859 5.34375 10.6055C4.9974 11.125 4.73763 11.7812 4.56445 12.5742C4.40039 13.3581 4.31836 14.2786 4.31836 15.3359V16.7441C4.31836 17.7741 4.39583 18.681 4.55078 19.4648C4.70573 20.2396 4.94271 20.8958 5.26172 21.4336C5.58984 21.9622 6.00911 22.3633 6.51953 22.6367C7.03906 22.901 7.66341 23.0332 8.39258 23.0332C9.24935 23.0332 9.95573 22.8965 10.5117 22.623C11.0677 22.3496 11.4915 21.944 11.7832 21.4062C12.084 20.8685 12.2617 20.1986 12.3164 19.3965ZM23.0488 19.5469L31.0469 6.09375H35.1484V26H31.0469V12.5469L23.0488 26H18.9473V6.09375H23.0488V19.5469ZM51.9785 14.2012V17.4004H41.5879V14.2012H51.9785ZM42.8047 6.09375V26H38.7031V6.09375H42.8047ZM54.9043 6.09375V26H50.8164V6.09375H54.9043ZM62.4238 19.5469L70.4219 6.09375H74.5234V26H70.4219V12.5469L62.4238 26H58.3223V6.09375H62.4238V19.5469ZM82.0293 19.5469L90.0273 6.09375H94.1289V26H90.0273V12.5469L82.0293 26H77.9277V6.09375H82.0293V19.5469ZM88.0176 0.871094H90.8203C90.8203 1.65495 90.6243 2.35221 90.2324 2.96289C89.8496 3.56445 89.3027 4.03841 88.5918 4.38477C87.8809 4.72201 87.0423 4.89062 86.0762 4.89062C84.6087 4.89062 83.4466 4.51693 82.5898 3.76953C81.7422 3.02214 81.3184 2.05599 81.3184 0.871094H84.1074C84.1074 1.34505 84.2533 1.76888 84.5449 2.14258C84.8457 2.51628 85.3561 2.70312 86.0762 2.70312C86.7871 2.70312 87.2884 2.51628 87.5801 2.14258C87.8717 1.76888 88.0176 1.34505 88.0176 0.871094ZM117.932 6.09375V9.30664H108.033V6.09375H117.932ZM120.857 6.09375V26H116.756V6.09375H120.857ZM107.514 6.09375H111.602L111.096 16.0879C111.023 17.5827 110.882 18.8815 110.672 19.9844C110.471 21.0872 110.198 22.026 109.852 22.8008C109.505 23.5664 109.077 24.1862 108.566 24.6602C108.065 25.125 107.473 25.4668 106.789 25.6855C106.105 25.8952 105.326 26 104.451 26H103.439V22.8008L103.959 22.7598C104.406 22.7142 104.798 22.5957 105.135 22.4043C105.472 22.2129 105.759 21.9258 105.996 21.543C106.242 21.1602 106.443 20.6725 106.598 20.0801C106.762 19.4785 106.889 18.7448 106.98 17.8789C107.081 17.013 107.149 16.0013 107.186 14.8438L107.514 6.09375ZM130.674 18.7812L135.568 6.09375H139.984L133.162 22.1445C132.925 22.6914 132.652 23.2155 132.342 23.7168C132.041 24.209 131.681 24.651 131.262 25.043C130.842 25.4258 130.341 25.7311 129.758 25.959C129.174 26.1777 128.477 26.2871 127.666 26.2871C127.465 26.2871 127.219 26.2826 126.928 26.2734C126.636 26.2643 126.404 26.2507 126.23 26.2324L126.203 23.0332C126.312 23.0605 126.486 23.0788 126.723 23.0879C126.96 23.0879 127.133 23.0879 127.242 23.0879C127.78 23.0879 128.204 23.0104 128.514 22.8555C128.824 22.7005 129.07 22.4818 129.252 22.1992C129.443 21.9076 129.612 21.5658 129.758 21.1738L130.674 18.7812ZM127.434 6.09375L131.973 15.9512L133.244 20.4766L130.195 20.5312L123.031 6.09375H127.434ZM155.188 6.09375V9.30664H146.219V26H142.131V6.09375H155.188Z" fill="#434A5C"/>
</svg>
