<svg width="132" height="14" viewBox="0 0 132 14" fill="none" xmlns="http://www.w3.org/2000/svg">
<path d="M3.97852 3.60352V11H2.70703V3.60352H3.97852ZM6.45996 3.60352V4.62891H0.273438V3.60352H6.45996ZM11.1768 7.74609H8.75L8.73633 6.73438H10.7188C11.1107 6.73438 11.4365 6.69564 11.6963 6.61816C11.9606 6.54069 12.1589 6.42448 12.291 6.26953C12.4232 6.11458 12.4893 5.92318 12.4893 5.69531C12.4893 5.51758 12.4505 5.36263 12.373 5.23047C12.3001 5.09375 12.1885 4.9821 12.0381 4.89551C11.8877 4.80436 11.7008 4.73828 11.4775 4.69727C11.2588 4.65169 11.0013 4.62891 10.7051 4.62891H9.08496V11H7.82031V3.60352H10.7051C11.1745 3.60352 11.596 3.64453 11.9697 3.72656C12.348 3.80859 12.6693 3.93392 12.9336 4.10254C13.2025 4.2666 13.4076 4.47624 13.5488 4.73145C13.6901 4.98665 13.7607 5.28743 13.7607 5.63379C13.7607 5.8571 13.7152 6.06901 13.624 6.26953C13.5329 6.47005 13.3984 6.64779 13.2207 6.80273C13.043 6.95768 12.8242 7.08529 12.5645 7.18555C12.3047 7.28125 12.0062 7.34277 11.6689 7.37012L11.1768 7.74609ZM11.1768 11H8.29199L8.9209 9.97461H11.1768C11.5277 9.97461 11.8193 9.93132 12.0518 9.84473C12.2842 9.75358 12.4574 9.62598 12.5713 9.46191C12.6898 9.29329 12.749 9.09277 12.749 8.86035C12.749 8.62793 12.6898 8.42969 12.5713 8.26562C12.4574 8.09701 12.2842 7.9694 12.0518 7.88281C11.8193 7.79167 11.5277 7.74609 11.1768 7.74609H9.25586L9.26953 6.73438H11.6689L12.127 7.11719C12.5326 7.14909 12.8766 7.24935 13.1592 7.41797C13.4417 7.58659 13.6559 7.80078 13.8018 8.06055C13.9476 8.31576 14.0205 8.59375 14.0205 8.89453C14.0205 9.24089 13.9544 9.54622 13.8223 9.81055C13.6947 10.0749 13.5078 10.2959 13.2617 10.4736C13.0156 10.6468 12.7171 10.779 12.3662 10.8701C12.0153 10.9567 11.6188 11 11.1768 11ZM15.3809 7.38379V7.22656C15.3809 6.69336 15.4583 6.19889 15.6133 5.74316C15.7682 5.28288 15.9915 4.88411 16.2832 4.54688C16.5749 4.20508 16.9281 3.94076 17.3428 3.75391C17.7575 3.5625 18.2223 3.4668 18.7373 3.4668C19.2568 3.4668 19.724 3.5625 20.1387 3.75391C20.5579 3.94076 20.9134 4.20508 21.2051 4.54688C21.5013 4.88411 21.7269 5.28288 21.8818 5.74316C22.0368 6.19889 22.1143 6.69336 22.1143 7.22656V7.38379C22.1143 7.91699 22.0368 8.41146 21.8818 8.86719C21.7269 9.32292 21.5013 9.72168 21.2051 10.0635C20.9134 10.4007 20.5602 10.665 20.1455 10.8564C19.7354 11.0433 19.2705 11.1367 18.751 11.1367C18.2314 11.1367 17.7643 11.0433 17.3496 10.8564C16.9349 10.665 16.5794 10.4007 16.2832 10.0635C15.9915 9.72168 15.7682 9.32292 15.6133 8.86719C15.4583 8.41146 15.3809 7.91699 15.3809 7.38379ZM16.6455 7.22656V7.38379C16.6455 7.75293 16.6888 8.10156 16.7754 8.42969C16.862 8.75326 16.9919 9.04036 17.165 9.29102C17.3428 9.54167 17.5638 9.73991 17.8281 9.88574C18.0924 10.027 18.4001 10.0977 18.751 10.0977C19.0973 10.0977 19.4004 10.027 19.6602 9.88574C19.9245 9.73991 20.1432 9.54167 20.3164 9.29102C20.4896 9.04036 20.6195 8.75326 20.7061 8.42969C20.7972 8.10156 20.8428 7.75293 20.8428 7.38379V7.22656C20.8428 6.86198 20.7972 6.5179 20.7061 6.19434C20.6195 5.86621 20.4873 5.57682 20.3096 5.32617C20.1364 5.07096 19.9176 4.87044 19.6533 4.72461C19.3936 4.57878 19.0882 4.50586 18.7373 4.50586C18.391 4.50586 18.0856 4.57878 17.8213 4.72461C17.5615 4.87044 17.3428 5.07096 17.165 5.32617C16.9919 5.57682 16.862 5.86621 16.7754 6.19434C16.6888 6.5179 16.6455 6.86198 16.6455 7.22656ZM25.0674 8.99707L28.4785 3.60352H29.75V11H28.4785V5.60645L25.0674 11H23.8096V3.60352H25.0674V8.99707ZM27.7881 0.923828H28.8135C28.8135 1.2793 28.7314 1.59603 28.5674 1.87402C28.4033 2.14746 28.1686 2.36165 27.8633 2.5166C27.5579 2.67155 27.1956 2.74902 26.7764 2.74902C26.1429 2.74902 25.6416 2.5804 25.2725 2.24316C24.9079 1.90137 24.7256 1.46159 24.7256 0.923828H25.751C25.751 1.19271 25.8285 1.42969 25.9834 1.63477C26.1383 1.83984 26.4027 1.94238 26.7764 1.94238C27.141 1.94238 27.4007 1.83984 27.5557 1.63477C27.7106 1.42969 27.7881 1.19271 27.7881 0.923828ZM40.1953 3.60352V4.64941H36.6201V3.60352H40.1953ZM41.3096 3.60352V11H40.0449V3.60352H41.3096ZM36.3125 3.60352H37.584L37.3926 7.17188C37.3607 7.72331 37.3083 8.21094 37.2354 8.63477C37.167 9.05404 37.0713 9.41406 36.9482 9.71484C36.8298 10.0156 36.6794 10.2617 36.4971 10.4531C36.3193 10.64 36.1051 10.779 35.8545 10.8701C35.6038 10.9567 35.3145 11 34.9863 11H34.5898V9.88574L34.8633 9.86523C35.0592 9.85156 35.2256 9.80599 35.3623 9.72852C35.5036 9.65104 35.6221 9.53711 35.7178 9.38672C35.8135 9.23177 35.891 9.03353 35.9502 8.79199C36.014 8.55046 36.0618 8.26335 36.0938 7.93066C36.1302 7.59798 36.1576 7.21061 36.1758 6.76855L36.3125 3.60352ZM45.4248 10.2344L47.4824 3.60352H48.8359L45.8691 12.1416C45.8008 12.3239 45.7096 12.5199 45.5957 12.7295C45.4863 12.9437 45.3451 13.1465 45.1719 13.3379C44.9987 13.5293 44.7891 13.6842 44.543 13.8027C44.3014 13.9258 44.012 13.9873 43.6748 13.9873C43.5745 13.9873 43.4469 13.9736 43.292 13.9463C43.137 13.9189 43.0277 13.8962 42.9639 13.8779L42.957 12.8525C42.9935 12.8571 43.0505 12.8617 43.1279 12.8662C43.21 12.8753 43.2669 12.8799 43.2988 12.8799C43.5859 12.8799 43.8298 12.8411 44.0303 12.7637C44.2308 12.6908 44.3994 12.5654 44.5361 12.3877C44.6774 12.2145 44.7982 11.9753 44.8984 11.6699L45.4248 10.2344ZM43.9141 3.60352L45.835 9.3457L46.1631 10.6787L45.2539 11.1436L42.5332 3.60352H43.9141ZM55.5557 3.60352V11H54.291V3.60352H55.5557ZM55.125 7.00098V8.04004C54.8698 8.13574 54.61 8.22233 54.3457 8.2998C54.0859 8.37272 53.8102 8.43197 53.5186 8.47754C53.2314 8.51855 52.9193 8.53906 52.582 8.53906C51.9987 8.53906 51.4928 8.4388 51.0645 8.23828C50.6361 8.0332 50.3057 7.72559 50.0732 7.31543C49.8408 6.90072 49.7246 6.37891 49.7246 5.75V3.58984H50.9893V5.75C50.9893 6.16016 51.0508 6.49284 51.1738 6.74805C51.2969 7.00326 51.4769 7.19238 51.7139 7.31543C51.9508 7.43392 52.2402 7.49316 52.582 7.49316C52.9102 7.49316 53.2178 7.47266 53.5049 7.43164C53.7965 7.38607 54.0745 7.32682 54.3389 7.25391C54.6077 7.18099 54.8698 7.09668 55.125 7.00098ZM57.7021 3.60352H58.9668V9.96094H61.6738V3.60352H62.9453V9.96094H65.6455V3.60352H66.9102V11H57.7021V3.60352ZM70.2939 8.99707L73.7051 3.60352H74.9766V11H73.7051V5.60645L70.2939 11H69.0361V3.60352H70.2939V8.99707ZM78.374 8.99707L81.7852 3.60352H83.0566V11H81.7852V5.60645L78.374 11H77.1162V3.60352H78.374V8.99707ZM81.0947 0.923828H82.1201C82.1201 1.2793 82.0381 1.59603 81.874 1.87402C81.71 2.14746 81.4753 2.36165 81.1699 2.5166C80.8646 2.67155 80.5023 2.74902 80.083 2.74902C79.4495 2.74902 78.9482 2.5804 78.5791 2.24316C78.2145 1.90137 78.0322 1.46159 78.0322 0.923828H79.0576C79.0576 1.19271 79.1351 1.42969 79.29 1.63477C79.445 1.83984 79.7093 1.94238 80.083 1.94238C80.4476 1.94238 80.7074 1.83984 80.8623 1.63477C81.0173 1.42969 81.0947 1.19271 81.0947 0.923828ZM89.9336 3.60352V11H88.6689V3.60352H89.9336ZM94.7871 3.60352L91.2803 7.8418H89.5098L89.3184 6.73438H90.7676L93.249 3.60352H94.7871ZM93.4268 11L90.7061 7.65039L91.5195 6.73438L95.0332 11H93.4268ZM98.2119 10.2344L100.27 3.60352H101.623L98.6562 12.1416C98.5879 12.3239 98.4967 12.5199 98.3828 12.7295C98.2734 12.9437 98.1322 13.1465 97.959 13.3379C97.7858 13.5293 97.5762 13.6842 97.3301 13.8027C97.0885 13.9258 96.7992 13.9873 96.4619 13.9873C96.3617 13.9873 96.234 13.9736 96.0791 13.9463C95.9242 13.9189 95.8148 13.8962 95.751 13.8779L95.7441 12.8525C95.7806 12.8571 95.8376 12.8617 95.915 12.8662C95.9971 12.8753 96.054 12.8799 96.0859 12.8799C96.373 12.8799 96.6169 12.8411 96.8174 12.7637C97.0179 12.6908 97.1865 12.5654 97.3232 12.3877C97.4645 12.2145 97.5853 11.9753 97.6855 11.6699L98.2119 10.2344ZM96.7012 3.60352L98.6221 9.3457L98.9502 10.6787L98.041 11.1436L95.3203 3.60352H96.7012ZM104.029 5.02539V13.8438H102.758V3.60352H103.92L104.029 5.02539ZM109.013 7.24023V7.38379C109.013 7.92155 108.949 8.42057 108.821 8.88086C108.694 9.33659 108.507 9.73307 108.261 10.0703C108.019 10.4076 107.721 10.6696 107.365 10.8564C107.01 11.0433 106.602 11.1367 106.142 11.1367C105.672 11.1367 105.257 11.0592 104.897 10.9043C104.537 10.7493 104.232 10.5238 103.981 10.2275C103.731 9.93132 103.53 9.57585 103.38 9.16113C103.234 8.74642 103.134 8.2793 103.079 7.75977V6.99414C103.134 6.44727 103.236 5.95736 103.387 5.52441C103.537 5.09147 103.735 4.72233 103.981 4.41699C104.232 4.1071 104.535 3.8724 104.891 3.71289C105.246 3.54883 105.656 3.4668 106.121 3.4668C106.586 3.4668 106.998 3.55794 107.358 3.74023C107.718 3.91797 108.021 4.17318 108.268 4.50586C108.514 4.83854 108.698 5.2373 108.821 5.70215C108.949 6.16243 109.013 6.67513 109.013 7.24023ZM107.741 7.38379V7.24023C107.741 6.87109 107.702 6.52474 107.625 6.20117C107.548 5.87305 107.427 5.58594 107.263 5.33984C107.103 5.08919 106.898 4.89323 106.647 4.75195C106.397 4.60612 106.098 4.5332 105.752 4.5332C105.433 4.5332 105.155 4.58789 104.918 4.69727C104.686 4.80664 104.487 4.95475 104.323 5.1416C104.159 5.32389 104.025 5.53353 103.92 5.77051C103.82 6.00293 103.744 6.24447 103.694 6.49512V8.26562C103.785 8.58464 103.913 8.88542 104.077 9.16797C104.241 9.44596 104.46 9.67155 104.733 9.84473C105.007 10.0133 105.351 10.0977 105.766 10.0977C106.107 10.0977 106.401 10.027 106.647 9.88574C106.898 9.73991 107.103 9.54167 107.263 9.29102C107.427 9.04036 107.548 8.75326 107.625 8.42969C107.702 8.10156 107.741 7.75293 107.741 7.38379ZM110.291 7.38379V7.22656C110.291 6.69336 110.368 6.19889 110.523 5.74316C110.678 5.28288 110.902 4.88411 111.193 4.54688C111.485 4.20508 111.838 3.94076 112.253 3.75391C112.668 3.5625 113.132 3.4668 113.647 3.4668C114.167 3.4668 114.634 3.5625 115.049 3.75391C115.468 3.94076 115.824 4.20508 116.115 4.54688C116.411 4.88411 116.637 5.28288 116.792 5.74316C116.947 6.19889 117.024 6.69336 117.024 7.22656V7.38379C117.024 7.91699 116.947 8.41146 116.792 8.86719C116.637 9.32292 116.411 9.72168 116.115 10.0635C115.824 10.4007 115.47 10.665 115.056 10.8564C114.646 11.0433 114.181 11.1367 113.661 11.1367C113.142 11.1367 112.674 11.0433 112.26 10.8564C111.845 10.665 111.49 10.4007 111.193 10.0635C110.902 9.72168 110.678 9.32292 110.523 8.86719C110.368 8.41146 110.291 7.91699 110.291 7.38379ZM111.556 7.22656V7.38379C111.556 7.75293 111.599 8.10156 111.686 8.42969C111.772 8.75326 111.902 9.04036 112.075 9.29102C112.253 9.54167 112.474 9.73991 112.738 9.88574C113.003 10.027 113.31 10.0977 113.661 10.0977C114.007 10.0977 114.311 10.027 114.57 9.88574C114.835 9.73991 115.053 9.54167 115.227 9.29102C115.4 9.04036 115.53 8.75326 115.616 8.42969C115.707 8.10156 115.753 7.75293 115.753 7.38379V7.22656C115.753 6.86198 115.707 6.5179 115.616 6.19434C115.53 5.86621 115.397 5.57682 115.22 5.32617C115.047 5.07096 114.828 4.87044 114.563 4.72461C114.304 4.57878 113.998 4.50586 113.647 4.50586C113.301 4.50586 112.996 4.57878 112.731 4.72461C112.472 4.87044 112.253 5.07096 112.075 5.32617C111.902 5.57682 111.772 5.86621 111.686 6.19434C111.599 6.5179 111.556 6.86198 111.556 7.22656ZM119.875 5.02539V13.8438H118.604V3.60352H119.766L119.875 5.02539ZM124.858 7.24023V7.38379C124.858 7.92155 124.795 8.42057 124.667 8.88086C124.539 9.33659 124.353 9.73307 124.106 10.0703C123.865 10.4076 123.566 10.6696 123.211 10.8564C122.855 11.0433 122.448 11.1367 121.987 11.1367C121.518 11.1367 121.103 11.0592 120.743 10.9043C120.383 10.7493 120.078 10.5238 119.827 10.2275C119.576 9.93132 119.376 9.57585 119.226 9.16113C119.08 8.74642 118.979 8.2793 118.925 7.75977V6.99414C118.979 6.44727 119.082 5.95736 119.232 5.52441C119.383 5.09147 119.581 4.72233 119.827 4.41699C120.078 4.1071 120.381 3.8724 120.736 3.71289C121.092 3.54883 121.502 3.4668 121.967 3.4668C122.432 3.4668 122.844 3.55794 123.204 3.74023C123.564 3.91797 123.867 4.17318 124.113 4.50586C124.359 4.83854 124.544 5.2373 124.667 5.70215C124.795 6.16243 124.858 6.67513 124.858 7.24023ZM123.587 7.38379V7.24023C123.587 6.87109 123.548 6.52474 123.471 6.20117C123.393 5.87305 123.272 5.58594 123.108 5.33984C122.949 5.08919 122.744 4.89323 122.493 4.75195C122.243 4.60612 121.944 4.5332 121.598 4.5332C121.279 4.5332 121.001 4.58789 120.764 4.69727C120.531 4.80664 120.333 4.95475 120.169 5.1416C120.005 5.32389 119.87 5.53353 119.766 5.77051C119.665 6.00293 119.59 6.24447 119.54 6.49512V8.26562C119.631 8.58464 119.759 8.88542 119.923 9.16797C120.087 9.44596 120.306 9.67155 120.579 9.84473C120.853 10.0133 121.197 10.0977 121.611 10.0977C121.953 10.0977 122.247 10.027 122.493 9.88574C122.744 9.73991 122.949 9.54167 123.108 9.29102C123.272 9.04036 123.393 8.75326 123.471 8.42969C123.548 8.10156 123.587 7.75293 123.587 7.38379ZM128.939 3.60352V11H127.668V3.60352H128.939ZM131.421 3.60352V4.62891H125.234V3.60352H131.421Z" fill="#434A5C"/>
</svg>
